<svg width="220" height="120" viewBox="0 0 220 120" fill="none" xmlns="http://www.w3.org/2000/svg" role="img" aria-label="Logo Vizô">
  <defs>
    <linearGradient id="g1" x1="30" y1="10" x2="190" y2="110" gradientUnits="userSpaceOnUse">
      <stop stop-color="#46D6D3"/>
      <stop offset="1" stop-color="#0FA0B8"/>
    </linearGradient>
    <linearGradient id="g2" x1="50" y1="25" x2="170" y2="95" gradientUnits="userSpaceOnUse">
      <stop stop-color="#D6F6F8"/>
      <stop offset="1" stop-color="#55C6D3"/>
    </linearGradient>
    <filter id="s" x="-20%" y="-20%" width="140%" height="140%">
      <feDropShadow dx="0" dy="2" stdDeviation="3" flood-color="#000" flood-opacity="0.12"/>
    </filter>
  </defs>
  <g filter="url(#s)">
    <path d="M110 8c26 0 50 10 67 28 11 12 18 26 18 37 0 11-7 25-18 37-17 18-41 28-67 28s-50-10-67-28C32 98 24 84 24 73c0-11 8-25 19-37 17-18 41-28 67-28z" fill="url(#g1)"/>
    <path d="M110 22c21 0 41 8 55 22 9 9 15 19 15 29s-6 20-15 29c-14 14-34 22-55 22s-41-8-55-22c-9-9-15-19-15-29s6-20 15-29c14-14 34-22 55-22z" fill="url(#g2)"/>
  </g>
  <circle cx="110" cy="72" r="28" fill="#0A5AA5"/>
  <circle cx="118" cy="66" r="18" fill="#08427A"/>
  <circle cx="124" cy="60" r="6" fill="#FFFFFF" opacity="0.9"/>
</svg>
